<?xml version="1.0" encoding="UTF-8" standalone="no"?>
<!-- Created with Inkscape (http://www.inkscape.org/) -->

<svg
   xmlns:dc="http://purl.org/dc/elements/1.1/"
   xmlns:cc="http://creativecommons.org/ns#"
   xmlns:rdf="http://www.w3.org/1999/02/22-rdf-syntax-ns#"
   xmlns:svg="http://www.w3.org/2000/svg"
   xmlns="http://www.w3.org/2000/svg"
   xmlns:sodipodi="http://sodipodi.sourceforge.net/DTD/sodipodi-0.dtd"
   xmlns:inkscape="http://www.inkscape.org/namespaces/inkscape"
   width="194.70142mm"
   height="220.23628mm"
   viewBox="0 0 194.70142 220.23628"
   version="1.1"
   id="svg15459"
   sodipodi:docname="directory-1.svg"
   inkscape:version="0.92.3 (2405546, 2018-03-11)">
  <defs
     id="defs15453">
    <filter
       style="color-interpolation-filters:sRGB;"
       inkscape:label="Drop Shadow"
       id="filter1084">
      <feFlood
         flood-opacity="0.498039"
         flood-color="rgb(0,0,0)"
         result="flood"
         id="feFlood1074" />
      <feComposite
         in="flood"
         in2="SourceGraphic"
         operator="in"
         result="composite1"
         id="feComposite1076" />
      <feGaussianBlur
         in="composite1"
         stdDeviation="1.1"
         result="blur"
         id="feGaussianBlur1078" />
      <feOffset
         dx="1.2"
         dy="1.4107"
         result="offset"
         id="feOffset1080" />
      <feComposite
         in="SourceGraphic"
         in2="offset"
         operator="over"
         result="composite2"
         id="feComposite1082" />
    </filter>
  </defs>
  <sodipodi:namedview
     id="base"
     pagecolor="#ffffff"
     bordercolor="#666666"
     borderopacity="1.0"
     inkscape:pageopacity="0.0"
     inkscape:pageshadow="2"
     inkscape:zoom="0.98994949"
     inkscape:cx="383.38459"
     inkscape:cy="346.52526"
     inkscape:document-units="mm"
     inkscape:current-layer="g16015"
     showgrid="false"
     fit-margin-top="0"
     fit-margin-left="0"
     fit-margin-right="0"
     fit-margin-bottom="0"
     inkscape:window-width="3726"
     inkscape:window-height="2049"
     inkscape:window-x="114"
     inkscape:window-y="55"
     inkscape:window-maximized="1" />
  <metadata
     id="metadata15456">
    <rdf:RDF>
      <cc:Work
         rdf:about="">
        <dc:format>image/svg+xml</dc:format>
        <dc:type
           rdf:resource="http://purl.org/dc/dcmitype/StillImage" />
        <dc:title></dc:title>
      </cc:Work>
    </rdf:RDF>
  </metadata>
  <g
     inkscape:label="Layer 1"
     inkscape:groupmode="layer"
     id="layer1"
     transform="translate(-4.39616,-20.281865)">
    <g
       id="g16015"
       transform="translate(-210.60816,42.918337)">
      <path
         style="opacity:1;fill:#0c0c0c;fill-opacity:1;fill-rule:nonzero;stroke:#000000;stroke-width:2;stroke-linecap:round;stroke-linejoin:round;stroke-miterlimit:4;stroke-dasharray:none;stroke-opacity:0.87058824"
         d="M 312.35503,-21.636472 A 96.350668,96.350668 0 0 0 248.9465,2.2674953 l 1.5844,1.5843996 a 94.234472,94.234472 0 0 1 61.90681,-23.3427609 94.234472,94.234472 0 0 1 55.994,18.57716026 l 1.5012,-1.50120046 A 96.350668,96.350668 0 0 0 312.35503,-21.636472 Z m 67.723,27.8711671 -1.49759,1.4975829 a 94.234472,94.234472 0 0 1 28.09183,67.011414 94.234472,94.234472 0 0 1 -23.30866,61.940918 l 1.4056,1.4056 A 96.350668,96.350668 0 0 0 408.70574,74.714235 96.350668,96.350668 0 0 0 380.07803,6.2346951 Z M 239.60495,11.720665 a 96.350668,96.350668 0 0 0 -23.60063,62.99357 96.350668,96.350668 0 0 0 19.23294,57.566505 l 1.53944,-1.53944 A 94.234472,94.234472 0 0 1 218.20316,74.743692 94.234472,94.234472 0 0 1 241.11442,13.230134 Z m 5.79086,129.196245 -1.49345,1.49345 a 96.350668,96.350668 0 0 0 68.45267,28.65458 96.350668,96.350668 0 0 0 63.03646,-23.55774 l -1.48621,-1.48621 a 94.234472,94.234472 0 0 1 -61.46757,22.95725 94.234472,94.234472 0 0 1 -67.0419,-28.06133 z"
         id="path16021"
         inkscape:connector-curvature="0" />
      <path
         style="fill:#0c0c0c;fill-opacity:1;stroke-width:0.91890621"
         d="m 312.16953,156.86675 h -11.8265 l 1.84824,-4.82426 1.84825,-4.82425 0.13101,-11.5205 0.131,-11.52048 -1.62926,-2.49284 -1.62927,-2.49282 h -1.86225 -1.86227 l -2.48136,1.29105 -2.48136,1.29105 -2.19863,2.35361 -2.19862,2.3536 -2.13751,3.47687 -2.13748,3.47686 -0.0287,-0.93251 -0.0287,-0.93252 1.80747,-3.37234 1.80747,-3.37236 -2.0372,-0.28967 -2.03722,-0.28966 8.07688,-3.88049 8.07688,-3.8805 -1.33262,-2.55185 -1.33262,-2.55184 -2.84467,-3.90536 -2.84467,-3.90535 h -1.76155 -1.76154 l -2.95853,2.48944 -2.95854,2.48945 -2.15698,4.63207 -2.15697,4.63209 -0.0382,-1.37836 -0.0382,-1.37836 -1.3639,1.80392 -1.36392,1.80393 -1.55319,4.92729 -1.55319,4.92729 -1.47884,0.79145 -1.47884,0.79145 2.22077,-4.48735 2.22076,-4.48734 -0.34457,-1.03372 -0.34457,-1.03371 -2.69077,2.11655 -2.69076,2.11656 0.69943,-1.13171 0.69944,-1.13172 h -0.57409 -0.57409 l -2.00714,1.06935 -2.00713,1.06935 1.18138,-1.43268 1.18137,-1.43268 3.03647,-0.56964 3.03647,-0.56965 1.86995,-2.05347 1.86994,-2.05347 1.06606,-2.06754 1.06607,-2.06754 h -2.80957 -2.80959 l -4.34427,3.86852 -4.34427,3.86851 1.14863,-1.29558 1.14864,-1.29557 v -0.75872 -0.75873 l -2.59392,1.34137 -2.59392,1.34137 -1.1155,1.34408 -1.11549,1.34409 -1.86055,-0.48654 -1.86054,-0.48655 3.61878,-1.62018 3.61877,-1.62017 0.62706,-1.01459 0.62704,-1.01459 -1.20285,-0.0941 -1.20287,-0.0941 2.75672,-0.7885 2.75672,-0.78851 6.80501,-1.82019 6.80502,-1.8202 1.42576,-1.42576 1.42576,-1.42575 -0.87954,-0.80333 -0.87951,-0.80334 -4.52851,-1.50049 -4.52849,-1.50049 h -1.95566 -1.95568 l -6.69399,4.71615 -6.69397,4.71617 1.18285,-1.89405 1.18286,-1.89405 2.2358,-1.0187 2.23581,-1.0187 -0.57489,-0.57491 -0.5749,-0.57489 2.87609,-1.74907 2.87611,-1.749051 -0.81187,-0.767892 -0.81182,-0.767894 -4.39692,-1.468274 -4.39691,-1.468274 h -1.76393 -1.76392 l -2.29727,-2.297268 -2.29727,-2.297266 h 0.32644 0.32645 l 4.91549,2.288288 4.9155,2.288288 1.79458,0.0091 1.79458,0.0091 -3.63239,-3.879033 -3.63239,-3.879044 5.23194,4.80101 5.23194,4.801 2.1193,0.797215 2.11932,0.797207 6.43234,-0.815061 6.43234,-0.81507 2.19262,-0.493553 2.19261,-0.493564 -2.6001,-2.713838 -2.60008,-2.713908 -8.93275,-4.588437 -8.93277,-4.588448 h -4.21363 -4.21363 l 0.22973,-1.047875 0.22973,-1.047875 -4.96617,-1.756673 -4.96617,-1.756663 -5.99624,-0.559944 -5.99624,-0.559936 2.14719,-0.794293 2.14719,-0.794294 2.84233,0.860078 2.84233,0.860078 2.52699,0.559486 2.52699,0.559485 v -1.020695 -1.020804 l -2.06754,-2.743146 -2.06754,-2.743146 -2.2698,-2.456172 -2.26979,-2.456595 -0.18772,-1.22923 -0.18771,-1.229229 -1.59026,-1.757216 -1.59026,-1.757214 h 0.95564 0.95565 l 1.61514,2.526991 1.61515,2.526993 5.14648,6.348483 5.14648,6.348483 4.60066,2.142421 4.60065,2.14242 1.7801,0.0092 1.78009,0.0092 -5.80757,-5.851676 -5.80758,-5.851677 0.12213,-0.580666 0.12213,-0.581089 h 0.45945 0.45946 l -0.0308,0.229727 -0.0308,0.229726 6.69284,7.044014 6.69285,7.044012 4.34949,1.856879 4.34949,1.85688 3.08849,2.355708 3.08849,2.355707 h 1.0619 1.0619 V 89.205822 88.62511 l -1.90925,-3.089224 -1.90925,-3.089226 -1.53665,-0.896641 -1.53665,-0.89665 1.75051,-0.02794 1.7505,-0.02794 -1.7505,-1.964384 -1.75051,-1.964354 -7.21338,-5.846346 -7.21337,-5.846338 -2.8946,-0.0646 -2.89459,-0.0646 -1.83781,-0.864194 -1.83781,-0.864195 3.21617,0.454142 3.21617,0.454132 1.14563,-0.726367 1.14564,-0.726368 -3.21318,-3.114329 -3.21313,-3.114315 v -1.199549 -1.199629 l -4.59454,-3.300841 -4.59453,-3.300843 V 46.919152 46.49379 l 2.04228,1.430465 2.04227,1.430467 h 0.85686 0.85687 l -1.29105,-1.659042 -1.29106,-1.65904 2.29727,2.356826 2.29726,2.356828 3.07455,3.667017 3.07453,3.667019 -0.58325,-2.297266 -0.58325,-2.297266 2.37451,4.76374 2.3745,4.763738 5.6598,5.239969 5.6598,5.239981 0.32389,-0.971652 0.32388,-0.971651 -2.46645,-4.896989 -2.46645,-4.896979 -3.45548,-3.772762 -3.45549,-3.77277 -1.07407,-2.200124 -1.07408,-2.200125 1.65997,2.035194 1.65996,2.035194 1.51498,2.099884 1.51497,2.099884 0.62032,-0.603786 0.62033,-0.603785 -1.54194,-3.07184 -1.54194,-3.071839 -6.1068,-6.378896 -6.10679,-6.378893 1.51873,1.133537 1.51872,1.133538 0.4799,-0.980233 0.47989,-0.980232 -0.23345,1.159797 -0.23344,1.159798 2.36991,2.487328 2.3699,2.487331 1.1652,0.281197 1.1652,0.281197 10.32112,9.924535 10.32113,9.924537 2.09622,1.45654 2.09622,1.45654 0.39592,-0.395929 0.39592,-0.395929 -3.52502,-5.308154 -3.52503,-5.308159 -2.67935,-2.460819 -2.67936,-2.460819 0.90958,0.689179 0.90957,0.689181 h 0.73513 0.73512 v -1.031183 -1.031185 l -7.58097,-7.783419 -7.58098,-7.783418 -3.90535,-2.299588 -3.90535,-2.299588 v -0.343297 -0.343297 l 1.60809,0.590823 1.60808,0.590824 -4.3648,-4.715374 -4.36481,-4.715373 v -0.611772 -0.61177 l 9.12388,9.531739 9.1239,9.531738 2.82188,1.660038 2.8219,1.660036 -0.003,-1.660036 -0.003,-1.660038 -1.70218,-2.791289 -1.70219,-2.791287 -5.24516,-5.665391 -5.24514,-5.665391 -1.84809,-0.586558 -1.84808,-0.586558 0.53071,-0.530708 0.53071,-0.530707 -1.58571,-1.912382 -1.58523,-1.912383 1.30803,1.148632 1.30803,1.148633 h 0.77927 0.77927 l -2.87387,-4.364803 -2.87386,-4.364805 2.37194,2.580185 2.37195,2.580187 0.7537,-0.465811 0.7537,-0.465812 3.36459,5.751684 3.36459,5.751684 2.45952,2.24191 2.45952,2.241909 -0.47275,-1.378359 -0.47276,-1.37836 -1.62165,-5.053983 -1.62165,-5.053984 -3.33646,-3.652286 -3.33644,-3.652289 2.26254,1.814476 2.26254,1.814474 1.61056,1.837811 1.61054,1.837814 3.36169,10.107967 3.36169,10.107968 2.87319,7.35125 2.87318,7.351248 0.56822,-3.216172 0.56821,-3.21617 0.12096,3.015959 0.12098,3.015957 1.31779,3.153954 1.31781,3.153956 2.1281,0.450741 2.12809,0.450743 4.3648,0.848922 4.36481,0.848922 v -0.642092 -0.642104 l -3.37344,-4.070756 -3.37345,-4.070753 -4.16089,-4.352523 -4.1609,-4.352522 -0.68639,1.110599 -0.68638,1.110597 -0.38348,-1.352606 -0.38347,-1.352608 -1.07386,-4.488419 -1.07384,-4.488421 0.40155,-0.401545 0.40153,-0.401543 0.59849,2.592699 0.59848,2.592699 5.84849,6.428594 5.84847,6.428595 0.57684,-0.576842 0.57684,-0.576841 -8.94127,-13.167647 -8.94127,-13.167648 -3.0783,-7.298931 -3.07829,-7.298929 0.30783,-0.923498 0.30783,-0.9235 1.67321,4.381225 1.6732,4.381223 0.79084,-1.248134 0.79083,-1.248134 0.0141,1.667466 0.0141,1.667463 2.0072,4.764879 2.00718,4.764879 3.09958,4.92462 3.09958,4.924622 0.51002,-0.510015 0.51001,-0.510014 -1.48534,-4.359257 -1.48535,-4.359257 -2.06391,-2.271063 -2.06389,-2.271062 1.14863,0.661859 1.14864,0.661857 V 22.742426 21.75103 l -2.25117,-5.540155 -2.25117,-5.540154 0.48412,-1.26158 0.48411,-1.261578 -1.02902,-1.922734 -1.02902,-1.922732 1.12825,0.242844 1.12825,0.242843 2.48702,5.053983 2.48702,5.053985 1.50732,1.837811 1.50731,1.837814 -1.40762,-3.558119 -1.40757,-3.55812 0.003,-0.576958 0.003,-0.576959 1.72772,2.833277 1.72772,2.833278 0.6182,2.814602 0.61819,2.814603 1.92617,1.703369 1.92619,1.703369 3.53517,5.426175 3.53517,5.426174 v -0.917515 -0.917515 l -1.70989,-4.968113 -1.70989,-4.968112 -3.36718,-6.684979 -3.36718,-6.684981 -3.39698,-3.88244 -3.39698,-3.882442 2.33066,2.067539 2.33066,2.067539 h 1.02748 1.02749 l 0.62184,1.959226 0.62183,1.959225 0.80438,-1.270046 0.80437,-1.270045 0.0555,2.297265 0.0555,2.297265 1.26229,2.756719 1.26227,2.756719 0.18668,-3.675625 0.18669,-3.675625 0.74812,5.053984 0.74811,5.053984 0.99782,2.297264 0.99783,2.297267 -0.39247,-5.742807 -0.39245,-5.742806 0.83172,-0.514042 0.8313,-0.514041 v 3.729856 3.729855 h 0.9014 0.9014 l 0.62676,-2.497211 0.62676,-2.497213 -1.9878,-5.543216 -1.9878,-5.543217 0.0648,-1.837813 0.0648,-1.837813 0.78974,1.837813 0.78973,1.837813 0.2075,-2.297266 0.2075,-2.29726504 -0.14432,-2.29726496 -0.14433,-2.297266 1.33541,2.986446 1.3354,2.986444 h 0.57682 0.57684 l -0.52166,-2.986444 -0.52164,-2.986446 0.49708,1.064239 0.49707,1.06424 1.71915,5.827557 1.71913,5.827557 0.19961,-4.135078 0.19962,-4.135079 0.69864,5.053985 0.69866,5.053984 0.14912,6.891796 0.14912,6.891796 0.93111,-2.297265 0.93111,-2.297265 0.40622,-10.048608 0.40622,-10.04860704 0.44223,-0.442238 0.44222,-0.442238 v 1.454935 1.45493404 l 1.05068,0.350226 1.05068,0.350225 -1.10838,2.071017 -1.10838,2.071017 0.28743,1.882142 0.28743,1.882142 2.52698,-1.996238 2.527,-1.996237 0.12938,-6.59537604 0.12938,-6.59537496 0.62877,5.053984 0.62876,5.053984 -0.71153,2.756718 -0.71154,2.756719 -0.93996,7.810702 -0.93996,7.810702 -0.61824,2.663565 -0.61825,2.663564 1.05214,-0.650256 1.05214,-0.650258 -0.0119,0.283958 -0.0119,0.283958 -1.82595,5.825034 -1.82596,5.825033 0.0744,22.661054 0.0744,22.661061 1.64879,-3.535675 1.64881,-3.535675 1.09785,-7.031745 1.09787,-7.031745 2.00321,-10.107969 2.00321,-10.107967 -0.0694,-25.269921 -0.0694,-25.269919 0.35178,5.05398396 0.35178,5.05398404 0.76316,0.769856 0.76316,0.769859 -0.48831,9.567837 -0.48849,9.567837 h 0.61418 0.61415 l 1.00698,-2.526993 1.00698,-2.526991 1.24501,-4.135078 1.24502,-4.135078 -0.53499,4.135078 -0.535,4.135078 -1.86493,4.392767 -1.86493,4.392768 0.52342,0.523424 0.52343,0.523421 2.77373,-5.375643 2.77374,-5.375643 0.0443,0.749405 0.0442,0.749405 -3.21616,6.960982 -3.21617,6.960981 v 1.361464 1.361462 l 1.37835,-1.143936 1.37836,-1.143935 v -0.867704 -0.867701 l 2.2362,-2.931805 2.23619,-2.931804 2.34935,-5.047314 2.34937,-5.047312 0.009,-2.067539 0.009,-2.067539 h 0.9189 0.91891 v -1.324129 -1.324128 l 1.01735,-0.628757 1.01735,-0.628759 -0.66007,2.182613 -0.66008,2.182612 -5.26854,11.090101 -5.26853,11.090101 -0.52305,5.909664 -0.52305,5.909663 2.76791,-3.216172 2.76791,-3.216172 -1.84761,3.675626 -1.84761,3.675624 -3.20207,3.074983 -3.20205,3.07498 -1.1134,3.976678 -1.11341,3.976686 0.41242,1.218487 0.4124,1.218498 2.01397,-3.675624 2.01398,-3.675626 -0.55064,2.067539 -0.55063,2.067539 h 0.48035 0.48033 l 3.71954,-6.260906 3.71955,-6.260906 3.11496,-7.752413 3.11496,-7.752413 1.6713,-10.107969 1.6713,-10.107968 0.3579,1.741463 0.35791,1.741463 0.81177,-1.28201 0.81178,-1.282009 0.014,1.640415 0.014,1.640417 -1.3043,2.035209 -1.30431,2.035208 -0.62855,5.513436 -0.62855,5.513438 2.89747,-3.216171 2.89747,-3.216172 -4.15925,5.897439 -4.15928,5.897439 -2.7199,6.507794 -2.7199,6.507795 -4.62226,8.224201 -4.62225,8.2242 0.38555,0.385546 0.38556,0.385546 3.02973,-1.745114 3.02971,-1.745112 2.86826,-5.681045 2.86824,-5.681053 -0.4948,-0.494405 -0.49441,-0.494404 h 1.13398 1.13399 l -0.58157,-2.067539 -0.58157,-2.06754 0.88268,1.27661 0.8827,1.27661 1.43797,-2.654969 1.43798,-2.65497 0.0367,0.709577 0.0368,0.709577 -3.68589,7.330853 -3.68588,7.330852 h 1.40756 1.40756 l 2.96749,-4.269872 2.96751,-4.269869 5.74317,-7.758961 5.74316,-7.75896 0.0289,-1.065582 0.0289,-1.065582 2.27151,-1.653332 2.27149,-1.653333 -3.67907,5.252048 -3.67908,5.252046 0.43113,0.43111 0.4311,0.43111 2.55567,-1.58578 2.55568,-1.58578 3.07824,-3.362951 3.07826,-3.36295 -0.60549,1.148632 -0.6055,1.148632 h 0.83072 0.83071 l 1.6632,-1.837812 1.66321,-1.837812 h 0.90585 0.90586 l -4.31434,3.797636 -4.31434,3.797635 -3.28161,6.540059 -3.2816,6.540059 -1.7949,2.756718 -1.79489,2.756719 2.79389,-3.139259 2.7939,-3.139259 4.12921,-7.106605 4.12922,-7.106603 2.83212,-2.016647 2.8321,-2.016646 -0.51449,-1.621077 -0.51452,-1.621075 1.5755,-1.278366 1.57551,-1.278367 -0.69009,1.148632 -0.69007,1.148633 h 1.13051 1.13051 l 1.87961,-1.608085 1.87963,-1.608087 -5.72128,6.724456 -5.72128,6.724455 -1.25328,2.464607 -1.25329,2.464606 -0.70841,2.29006 -0.70841,2.290059 1.5109,-1.253942 1.51092,-1.253941 v 0.633279 0.63328 l -2.29728,3.011871 -2.29726,3.011869 v 0.709617 0.709617 l 2.04157,-0.53388 2.04155,-0.53388 -2.48737,2.034796 -2.48739,2.034789 -1.43711,6.310642 -1.43712,6.310643 0.52144,0.521444 0.52145,0.521451 3.71267,-3.615923 3.71268,-3.615915 -0.61168,1.608086 -0.61169,1.608087 h 1.01722 1.01722 l 3.64436,-3.644364 3.64437,-3.644363 2.17478,-3.47716 2.17479,-3.47716 1.04317,-3.039012 1.04317,-3.039014 -2.03807,0.575126 -2.03806,0.575124 -5.51343,2.772795 -5.51344,2.772795 1.83781,-1.7429 1.83781,-1.742899 4.59453,-1.939815 4.59454,-1.939816 1.50613,-0.463579 1.50612,-0.463579 1.6322,-4.432769 1.63219,-4.432768 0.80424,-0.910168 0.80423,-0.91017 -1.44143,4.085432 -1.44142,4.08543 0.4307,1.122359 0.43069,1.122357 -1.25245,1.039434 -1.25244,1.039437 -0.9424,2.703374 -0.94229,2.703373 h 0.51653 0.51652 l 3.34104,-3.500112 3.34102,-3.500111 -2.06754,2.401761 -2.06754,2.40176 v 0.849431 0.849431 l -7.56069,7.600168 -7.56069,7.600172 h 4.05557 4.05557 l 2.32868,-2.06754 2.32868,-2.067538 -1.15919,1.518721 -1.15917,1.518731 1.18698,0.42301 1.18699,0.42301 -0.50675,0.555975 -0.50673,0.555965 -7.21197,0.473448 -7.21198,0.473439 -4.0129,1.942623 -4.01292,1.942613 -0.95423,1.783008 -0.95424,1.783018 0.5311,1.673365 0.53111,1.673365 -1.39911,1.161157 -1.3991,1.161158 v 1.707787 1.707796 l 2.06753,0.48997 2.06754,0.48998 4.26492,0.768591 4.26492,0.768592 1.49695,-0.83774 1.49696,-0.837739 -0.24845,1.20476 -0.24843,1.204768 2.45717,0.284026 2.45715,0.284024 3.70885,-1.89211 3.70885,-1.892112 0.72579,0.03675 0.72579,0.03675 -2.65497,1.437969 -2.65497,1.437968 1.27661,0.808436 1.27661,0.808427 3.80704,0.01406 3.80703,0.01406 0.51378,1.338892 0.51378,1.338893 -2.31824,-0.881387 -2.31823,-0.881398 -10.27273,-0.922976 -10.27274,-0.922986 -5.31161,-1.258176 -5.31161,-1.258184 -4.03553,5.624083 -4.03553,5.624078 0.20387,0.20387 0.20386,0.20387 8.0941,0.91972 8.09408,0.91971 1.06933,0.88746 1.06933,0.88746 6.38158,1.17585 6.38159,1.17586 -2.26665,0.55256 -2.26665,0.55257 2.75671,1.51238 2.75671,1.51238 -0.72578,0.0367 -0.72579,0.0368 -3.47048,-1.77051 -3.47049,-1.77051 -5.45225,-1.97826 -5.45223,-1.97825 -7.8107,-0.43848 -7.8107,-0.43846 -1.25875,0.86362 -1.25874,0.86363 3.09655,4.29706 3.09656,4.29707 1.99143,2.47245 1.99143,2.47244 5.50067,-0.20124 5.50068,-0.20124 0.97641,1.17651 0.97642,1.17651 -5.48208,-0.39653 -5.48207,-0.39654 v 1.04286 1.04286 l 2.83242,1.72249 2.83242,1.7225 -1.20489,0.40163 -1.20488,0.40163 1.66206,2.53662 1.66206,2.53663 -0.36613,0.36613 -0.36614,0.36613 -5.39746,-7.33766 -5.39748,-7.33765 h -0.74216 -0.74216 l 0.005,0.68918 0.005,0.68918 0.99953,3.59997 0.9995,3.59996 2.3295,3.75129 2.32951,3.75128 -2.70867,-2.53986 -2.70869,-2.53985 -0.77279,0.70204 -0.77278,0.70204 0.661,-1.14863 0.661,-1.14863 -0.74339,-0.007 -0.74342,-0.007 -0.23546,-5.54898 -0.23547,-5.54897 -1.32487,-3.17087 -1.32488,-3.17087 -2.36229,-1.07633 -2.36228,-1.07633 -2.8234,2.68236 -2.82342,2.68236 -1.91505,2.6655 -1.91504,2.6655 2.39982,2.06425 2.39984,2.06424 -0.45118,0.45118 -0.45118,0.45118 4.41516,3.50272 4.41517,3.50272 0.9189,0.84762 0.91892,0.84763 -2.29727,-1.17463 -2.29727,-1.17464 -3.13626,-2.37735 -3.13627,-2.37735 0.49111,2.29087 0.4911,2.29087 0.62836,1.83782 0.62834,1.83781 -3.35948,-6.76639 -3.35949,-6.7664 -1.37304,1.37304 -1.37303,1.37304 -1.84345,5.39335 -1.84343,5.39336 -0.487,8.90905 -0.48699,8.90906 1.92725,3.26644 1.92725,3.26646 h -11.82452 z m 7.31713,-34.91843 1.82011,-2.29727 0.55932,-2.07947 0.55933,-2.07947 -1.13402,-1.36643 -1.13404,-1.36643 h -1.26583 -1.26586 l 0.0204,5.74317 0.0204,5.74316 1.82011,-2.29726 z m -16.70816,-10.60737 0.31478,-1.52195 -0.58615,-3.1244 -0.58614,-3.12441 h -3.17452 -3.17453 v 0.51417 0.51417 l 3.44589,4.13218 3.4459,4.13219 z m 20.31523,0.4994 h 0.76506 l 0.60379,-2.4057 0.60379,-2.40569 -0.35665,-0.35666 -0.35666,-0.35665 -1.61591,1.78554 -1.61588,1.78554 0.60371,0.97681 0.60369,0.97681 z m 10.70896,-5.90403 5.41728,-4.51768 4.43388,-4.207936 4.43388,-4.207928 0.90256,-1.646193 0.90255,-1.646183 -6.44094,3.2436 -6.44095,3.243611 -3.16316,2.777292 -3.16318,2.777297 -0.6002,2.51709 -0.60023,2.51707 -0.54938,1.83382 -0.54938,1.83382 z m -15.46932,1.3095 h 0.47043 l 4.47626,-3.41364 4.47625,-3.41363 0.90244,-3.248434 0.90246,-3.248434 0.005,-3.107713 0.005,-3.107704 1.88413,-3.048591 1.88413,-3.04859 3.04858,-1.884125 3.04859,-1.884135 h 2.80304 2.80304 l 1.80131,-2.986445 1.80131,-2.986444 1.12195,-3.507465 1.12192,-3.507465 -0.52236,-0.522361 -0.52235,-0.522361 -2.29554,1.504101 -2.29555,1.504093 -10.01497,11.142362 -10.01497,11.142363 -2.87026,4.735895 -2.87025,4.735896 -0.81013,4.336417 -0.81013,4.33641 h 0.47043 z m -33.61282,-4.66515 3.39168,0.0707 0.61739,-0.99897 0.61741,-0.99897 -0.9482,-0.94819 -0.94819,-0.948191 -3.82495,0.05275 -3.82494,0.05283 -2.91156,0.677344 -2.91155,0.677347 3.67562,1.14641 3.67563,1.14641 z m 12.44971,-0.84829 h 3.91511 l -0.009,-1.14863 -0.009,-1.148631 -3.0415,-3.825195 -3.04149,-3.825196 -2.69276,-2.240899 -2.69274,-2.2409 -2.00713,-1.055428 -2.00714,-1.055428 h -0.51986 -0.51986 v 1.003004 1.003005 l 4.35505,7.267152 4.35503,7.267146 h 3.91512 z m 8.33889,-4.022461 0.28873,-3.446845 -2.80922,-6.00315 -2.80921,-6.003159 -2.89399,-3.653948 -2.89397,-3.653956 -5.10142,-3.768635 -5.10142,-3.768637 -7.18901,-6.868345 -7.18902,-6.868342 -0.45489,0.454893 -0.45489,0.454894 3.82199,8.641622 3.82199,8.641624 3.09053,4.856676 3.09054,4.856675 1.40867,0.540556 1.40867,0.540556 0.53067,-0.530669 0.53067,-0.530677 -4.3368,-6.07747 -4.33679,-6.077471 0.45945,-0.459452 0.45945,-0.459453 4.4072,6.26489 4.40719,6.2649 6.02962,6.432343 6.02964,6.432343 2.74846,3.617541 2.74845,3.617527 z m 26.5893,-0.59173 0.68917,-0.01966 6.37685,-4.130721 6.37685,-4.130732 3.43315,-1.028595 3.43315,-1.028597 0.57242,-2.280697 0.57242,-2.280688 -0.29802,-0.298011 -0.29801,-0.298011 -4.31062,-0.223138 -4.31062,-0.223128 -2.09816,1.745554 -2.09814,1.745554 -4.36481,4.133186 -4.3648,4.133193 v 2.10208 2.102082 z m -11.25263,-7.331585 h 0.28153 l 4.68029,-6.313373 4.6803,-6.31338 1.37957,-3.91012 1.37957,-3.91012 V 67.99956 66.659519 l -3.70329,2.933057 -3.70328,2.933057 -1.2379,2.427869 -1.2379,2.427869 -1.40021,6.202617 -1.40021,6.202616 z m -13.60533,-2.18661 0.18223,-0.168803 -0.93038,-6.862723 -0.93037,-6.862721 -1.54912,-3.156874 -1.54912,-3.156865 -2.32766,-1.697974 -2.32764,-1.697973 -4.71852,-1.244723 -4.71852,-1.244722 7.90065,11.153545 7.90064,11.153553 1.44279,1.977541 1.44279,1.977541 z m 30.39028,-3.174316 3.88647,-3.063661 V 80.97978 80.597542 h -1.2693 -1.26929 l -2.61717,3.445899 -2.61716,3.445898 z m 13.99444,-4.14526 2.29725,-0.142329 1.93029,-6.016041 1.93027,-6.016033 0.63819,-3.401956 0.63822,-3.401955 -2.34312,1.067594 -2.3431,1.067594 -4.13072,7.764951 -4.13073,7.764948 v 0.288344 0.288344 l 1.6081,0.43943 1.60808,0.439439 z m -16.23808,-6.707288 1.50041,-0.839668 6.33911,-5.675542 6.33911,-5.67555 3.05461,-5.324637 3.05461,-5.324641 2.06791,-4.364803 2.06791,-4.364806 h -0.48133 -0.48135 l -4.11402,2.830532 -4.11404,2.83053 -5.02089,7.544691 -5.0209,7.544694 -2.74668,1.622503 -2.74669,1.622512 v 1.211551 1.21154 l -0.59908,2.995378 -0.59908,2.995386 z m -22.64353,-2.383661 0.41817,-1.597371 -0.39962,-2.078253 -0.39963,-2.078253 -0.0186,3.675625 -0.0185,3.675624 0.41817,-1.597372 z m -5.07529,-4.834972 0.66239,-3.675623 0.053,-2.901612 0.053,-2.901611 -5.2837,-10.422529 -5.28371,-10.422528 -5.05399,-3.017221 -5.05397,-3.017219 -0.29553,1.400961 -0.29554,1.400961 3.38089,6.21079 3.38088,6.21079 6.537,12.405234 6.537,12.405232 z m -54.82551,1.37836 h 0.45945 v -0.459453 -0.459453 h -0.45945 -0.45946 v 0.459453 0.459453 z m 60.44914,-6.576133 0.82438,-2.153476 -0.59844,-7.678568 -0.59845,-7.678566 -1.69268,-5.18612 -1.69267,-5.186119 -3.20019,-7.165607 -3.20019,-7.165608 -1.02417,2.937926 -1.02416,2.937925 v 3.949925 3.949924 l 2.98336,8.08846 2.98337,8.08846 0.4976,-4.135078 0.49759,-4.135078 1.10844,3.675626 1.10845,3.675624 0.006,2.916342 0.006,2.916342 1.09656,4.75057 1.09656,4.750562 0.82439,-2.153466 z m 38.68426,1.062696 h 0.45945 l 0.5679,-0.918906 0.56792,-0.918906 h -0.45945 -0.45946 l -0.5679,0.918906 -0.56792,0.918906 z M 251.92389,50.27364 h 0.45945 v -0.459454 -0.459453 h -0.45945 -0.45945 v 0.459453 0.459454 z m 62.00456,-13.32414 0.67638,-1.837813 0.6366,-7.196279 0.63663,-7.196282 -0.64284,-4.286716 -0.64284,-4.286717 -0.71602,1.834483 -0.71604,1.834482 -0.0646,3.498442 -0.0646,3.498441 -0.99239,3.941153 -0.9924,3.941155 1.10287,4.046732 1.10287,4.046731 0.67636,-1.837812 z m -18.53201,-4.171869 0.28395,0.03679 -0.6759,-1.148633 -0.6759,-1.148633 -3.83826,-5.053984 -3.83824,-5.053984 -2.87386,-4.59453 -2.87388,-4.594531 -0.0174,2.041337 -0.0174,2.041338 2.2467,5.080186 2.2467,5.080184 h 0.48118 0.48118 l -0.52893,-1.378359 -0.52893,-1.378359 h 0.5391 0.53909 l 1.86154,3.648925 1.86154,3.648926 2.52194,1.368267 2.52194,1.368268 0.28396,0.0368 z m -8.55411,-5.476646 h 0.45945 v -0.459453 -0.459453 h -0.45945 -0.45946 v 0.459453 0.459453 z m 21.42686,-7.35125 0.29203,-5.97289 -1.58166,-5.268896 -1.58166,-5.268898 -1.69682,-1.535591 -1.69681,-1.53559204 0.0126,4.04777004 0.0125,4.047771 0.57439,2.145218 0.57441,2.145217 0.77733,-1.226311 0.77735,-1.226312 0.0141,3.644903 0.0141,3.644903 1.60808,4.165799 1.60804,4.1658 z m 9.56073,-4.937182 0.79511,-4.47773 -0.51499,-0.514994 -0.51499,-0.514994 -0.99925,0.999251 -0.99926,0.999248 0.71914,3.993474 0.71912,3.993475 z m 18.63333,122.557167 h -0.45945 v -0.45945 -0.45945 h 0.45945 0.45945 v 0.45945 0.45945 z m -54.32392,-1.83781 h -0.45945 l 0.56792,-0.91891 0.56791,-0.9189 h 0.45945 0.45945 l -0.56791,0.9189 -0.56791,0.91891 z m 53.4304,0 h -0.37638 l -0.6057,-0.98004 -0.6057,-0.98004 0.43796,-0.43795 0.43795,-0.43795 0.54413,1.41799 0.54413,1.41799 z m -70.78115,-1.83781 h -0.45946 v -0.45946 -0.45945 h 0.45946 0.45945 v 0.45945 0.45946 z m 4.48607,-0.91891 h -0.45946 l 0.56792,-0.91891 0.56791,-0.9189 h 0.45946 0.45945 l -0.56791,0.9189 -0.56792,0.91891 z m 9.75698,-1.83781 h -1.22521 l 0.6126,-0.61261 0.61261,-0.6126 0.6126,0.6126 0.61259,0.61261 z m 3.13959,-0.99146 -1.76124,-0.0725 1.20607,-0.48262 1.20606,-0.48263 0.55517,0.55517 0.55517,0.55517 -1.76123,-0.0725 z m 80.99454,-1.76526 h -0.40523 l -0.65566,-1.06089 -0.65567,-1.06088 1.06089,0.65567 1.06089,0.65565 v 0.40523 0.40522 z m -3.72985,-2.75672 h -0.45946 v -0.45945 -0.45946 h 0.45946 0.45945 v 0.45946 0.45945 z m -97.40405,-1.83781 h -0.45945 v -0.45945 -0.45946 h 0.45945 0.45945 v 0.45946 0.45945 z m -9.18906,-3.67563 h -0.45946 v -0.45945 -0.45945 h 0.45946 0.45945 v 0.45945 0.45945 z m 129.1063,-7.4299 -1.37836,0.0505 -1.37836,-0.89079 -1.37836,-0.89076 0.91891,0.0505 0.91891,0.0505 1.8378,0.78973 1.83782,0.78974 -1.37836,0.0505 z m -11.48633,-0.84025 h -0.45945 v -0.45945 -0.45946 h 0.45945 0.45945 v 0.45946 0.45945 z m -1.8378,-0.91891 h -0.45946 v -0.45945 -0.45945 h 0.45946 0.45944 v 0.45945 0.45945 z m 22.05374,-0.9189 h -0.45945 v -0.45946 -0.45945 h 0.45945 0.45945 v 0.45945 0.45946 z m -141.51154,-0.91891 h -0.45945 v -0.45945 -0.45946 h 0.45945 0.45946 v 0.45946 0.45945 z m 138.29536,0 h -1.2252 l 0.6126,-0.61261 0.6126,-0.61259 0.61262,0.61259 0.6126,0.61261 z m -134.69631,-0.99145 -1.76123,-0.0725 1.20606,-0.48263 1.20607,-0.48263 0.55517,0.55517 0.55517,0.55517 -1.76124,-0.0725 z m 131.02069,0.0726 h -1.22519 l 0.61259,-0.61261 0.6126,-0.6126 0.61261,0.6126 0.61259,0.61261 z m -127.72794,-4.80777 h -3.21617 l 1.60809,-0.42024 1.60808,-0.42024 1.60809,0.42024 1.60808,0.42024 z m 113.02544,-0.91891 h -3.21616 l 1.60808,-0.42024 1.60808,-0.42023 1.60809,0.42023 1.60809,0.42024 z m -126.63354,-7.229655 -3.39167,-0.0916 2.29727,-0.735713 2.29726,-0.735712 1.66233,-0.09162 1.66231,-0.09158 -0.56791,0.918906 -0.56792,0.918906 -3.39167,-0.09161 z m 150.5251,-1.746216 h -1.2252 l 0.6126,-0.612607 0.6126,-0.612598 0.61261,0.612598 0.6126,0.612607 z M 238.1403,91.624417 h -0.45945 v -0.459454 -0.459452 h 0.45945 0.45945 v 0.459452 0.459454 z m 7.35125,-0.918906 h -0.45945 v -0.459453 -0.459454 h 0.45945 0.45945 v 0.459454 0.459453 z m -1.83782,-0.918907 h -0.45944 v -0.459453 -0.459453 h 0.45944 0.45946 v 0.459453 0.459453 z m 128.64686,-1.837813 h -0.45945 v -0.459452 -0.459454 h 0.45945 0.45946 v 0.459454 0.459452 z m 15.16194,-0.145085 h -2.29726 l 1.14864,-0.463488 1.14862,-0.463487 1.14864,0.463487 1.14863,0.463488 z m -11.94577,-1.34255 -2.29727,0.549791 3.21618,-1.5473 3.21617,-1.547292 -8.27016,-0.720652 -8.27016,-0.720651 -2.29726,-0.414987 -2.29726,-0.414997 7.50412,0.302982 7.50413,0.302981 2.49229,-1.293011 2.49228,-1.293011 -1.21739,1.466859 -1.21739,1.466859 1.32894,-0.190562 1.32895,-0.190564 2.29726,0.124356 2.29727,0.124356 -2.75672,1.722535 -2.75672,1.722527 z m 16.54031,0.568729 h -1.22521 l 0.6126,-0.612607 0.61261,-0.612597 0.61261,0.612597 0.61259,0.612607 z M 239.51865,84.273167 h -1.2252 l 0.6126,-0.612607 0.6126,-0.612598 0.61261,0.612598 0.6126,0.612607 z m 6.50893,-0.983496 -4.0585,0.0646 0.38287,-0.332598 0.38288,-0.332589 5.51344,-0.498902 5.51343,-0.498892 -1.83781,0.7669 -1.83781,0.76691 -4.0585,0.0646 z m -6.96838,-1.773222 h -0.45945 v -0.459453 -0.459454 h 0.45945 0.45945 v 0.459454 0.459453 z m -3.67562,-1.098047 -2.75672,-0.034 1.62558,-0.423607 1.62557,-0.423606 1.13115,0.457652 1.13114,0.457662 -2.75672,-0.03409 z m 40.36811,0.168949 -0.98268,0.0102 -4.876,-3.637986 -4.876,-3.637986 -0.57368,-0.64441 -0.57366,-0.644419 1.37836,0.746546 1.37836,0.746547 1.37836,1.173112 1.37836,1.173103 0.48075,-0.164245 0.48074,-0.164246 3.19488,2.516801 3.19487,2.516802 -0.98266,0.0102 z m 110.79194,-0.134895 h -2.29726 l 1.14862,-0.463487 1.14864,-0.463487 1.14863,0.463487 1.14864,0.463487 z m 5.05398,-6.287256 h -0.45945 v -0.459453 -0.459453 h 0.45945 0.45946 V 73.705747 74.1652 Z M 234.46467,73.246294 h -0.45945 v -0.459453 -0.459453 h 0.45945 0.45946 v 0.459453 0.459453 z m 28.4861,0 h -0.45946 v -0.459453 -0.459453 h 0.45946 0.45945 v 0.459453 0.459453 z m 123.82259,-0.983496 -0.68918,-0.0646 -1.83781,-0.789735 -1.83782,-0.789736 2.52699,-0.0646 2.52699,-0.06456 v 0.918906 0.918906 l -0.68917,-0.0646 z M 251.92389,71.408482 h -0.45945 v -0.459453 -0.459454 h 0.45945 0.45945 v 0.459454 0.459453 z m -10.10796,-0.918907 h -0.45946 V 70.030122 69.57067 h 0.45946 0.45945 v 0.459452 0.459453 z m 8.27015,0 h -0.45945 V 70.030122 69.57067 h 0.45945 0.45946 v 0.459452 0.459453 z m -10.10797,-0.947052 h -0.91891 l -1.37835,-0.89076 -1.37836,-0.89076 h 0.9189 0.91891 l 1.37835,0.89076 1.37837,0.89076 z m 144.72771,-1.327479 -2.29727,0.4571 1.37836,-0.595726 1.37837,-0.595718 2.37383,-1.196683 2.37385,-1.196682 v 1.322766 1.322756 l -1.45494,0.0125 -1.45493,0.01259 -2.29727,0.457092 z m 6.8918,-1.401093 h -0.45945 v -0.459454 -0.459452 h 0.45945 0.45946 v 0.459452 0.459454 z M 237.22139,63.138326 h -0.45945 V 62.678874 62.21942 h 0.45945 0.45946 v 0.459454 0.459452 z m 14.24305,0 h -1.2252 l 0.6126,-0.612607 0.6126,-0.612598 0.6126,0.612598 0.6126,0.612607 z M 235.38358,62.21942 h -0.45945 v -0.459452 -0.459454 h 0.45945 0.45945 v 0.459454 0.459452 z m 13.78359,0 h -0.45945 v -0.459452 -0.459454 h 0.45945 0.45946 v 0.459454 0.459452 z m -15.6214,-0.918906 h -0.45945 v -0.459452 -0.459454 h 0.45945 0.45945 v 0.459454 0.459452 z m 13.7836,-0.02812 h -0.91891 l -1.37836,-0.890788 -1.37837,-0.890759 h 0.91891 0.91891 l 1.37836,0.890759 1.37836,0.890761 h -0.9189 z M 242.73483,59.4627 h -0.45945 v -0.459453 -0.459453 h 0.45945 0.45946 v 0.459453 0.459453 z m -2.75672,-0.918906 h -0.45946 v -0.459453 -0.459453 h 0.45946 0.45945 v 0.459453 0.459453 z m 88.21499,-0.918906 h -0.45945 v -0.459454 -0.459453 h 0.45945 0.45945 v 0.459453 0.459454 z m -74.89085,-1.91647 -1.37836,0.05051 -1.37835,-0.890764 -1.37837,-0.890764 0.91891,0.05051 0.91891,0.05051 1.83781,0.789735 1.83781,0.789735 -1.37836,0.05051 z m 131.86302,-1.759156 h -0.45945 v -0.459453 -0.459452 h 0.45945 0.45945 v 0.459452 0.459453 z m -137.8359,-0.918904 h -0.45946 v -0.459454 -0.459453 h 0.45946 0.45944 v 0.459453 0.459454 z m 11.02687,0 h -0.45946 v -0.459454 -0.459453 h 0.45946 0.45945 v 0.459453 0.459454 z m 128.64685,0 h -0.45946 v -0.459454 -0.459453 h 0.45946 0.45944 v 0.459453 0.459454 z M 275.95787,52.111452 h -0.31703 l -1.75051,-2.067539 -1.75051,-2.067539 2.06755,1.750505 2.06753,1.750504 v 0.317035 0.317034 z m 113.74769,0 h -1.43257 l 0.57718,-0.933896 0.57717,-0.933895 0.85541,0.528674 0.85542,0.528673 v 0.405221 0.405223 z M 244.57264,51.192546 h -0.45945 V 50.733092 50.27364 h 0.45945 0.45946 v 0.459452 0.459454 z m 13.06244,-0.350902 -0.43016,0.430163 -0.57298,-1.493144 -0.57297,-1.493147 0.028,-0.614023 0.028,-0.614025 0.97519,1.677006 0.97519,1.677007 -0.43017,0.430163 z m 112.82769,0.350902 h -0.45945 V 50.733092 50.27364 h 0.45945 0.45945 v 0.459452 0.459454 z M 261.16719,49.354733 h -0.40523 l -0.65566,-1.060885 -0.65566,-1.060885 1.06088,0.655663 1.06089,0.655663 v 0.405222 0.405222 z m 110.13081,0 h -0.31809 l 0.52892,-1.378359 0.52893,-1.37836 h 0.93311 0.93311 l -1.14393,1.37836 -1.14396,1.378359 z m -31.00596,-1.225208 -0.61262,0.612604 V 47.51692 46.291713 l 0.61262,0.612603 0.61259,0.612604 z M 267.5453,47.51692 h -0.45945 v -0.459452 -0.459454 h 0.45945 0.45945 v 0.459454 0.459452 z m -22.97266,-0.918906 h -0.45945 v -0.459453 -0.459453 h 0.45945 0.45946 v 0.459453 0.459453 z m 11.02688,0 h -0.45945 v -0.459453 -0.459453 h 0.45945 0.45945 v 0.459453 0.459453 z m 85.61142,-1.225208 -0.61261,0.612605 v -1.225209 -1.225207 l 0.61261,0.612602 0.6126,0.612605 z m 2.60356,0.306302 h -0.45945 v -0.459452 -0.459454 h 0.45945 0.45946 v 0.459454 0.459452 z m 29.75193,0 h -0.80638 v -0.811733 -0.811732 l 1.89032,-0.494332 1.89032,-0.494332 -1.08392,1.306064 -1.08395,1.306065 z M 263.9239,44.760202 h -0.40523 l -0.65565,-1.060884 -0.65567,-1.060886 1.06089,0.655662 1.06088,0.655665 v 0.405221 0.405222 z m 2.90024,-0.350902 -0.43016,0.430162 -0.57298,-1.493143 -0.57297,-1.493146 0.028,-0.614023 0.028,-0.614026 0.97519,1.677007 0.9752,1.677006 -0.43017,0.430163 z m 77.84461,-0.568004 h -0.45946 l 0.98357,-1.837813 0.98358,-1.837811 h 0.45944 0.45945 l -0.98357,1.837811 -0.98356,1.837813 z M 246.52297,42.92239 h -0.34694 l -1.26114,-1.608086 -1.26116,-1.608086 1.60809,1.261148 1.60809,1.261147 v 0.34694 0.346937 z m 95.45372,-0.918907 h -0.45945 V 41.54403 41.084578 h 0.45945 0.45945 v 0.459452 0.459453 z m 32.1617,0 h -0.45944 V 41.54403 41.084578 h 0.45944 0.45946 v 0.459452 0.459453 z M 264.78858,40.165672 h -0.45946 v -0.459454 -0.459453 h 0.45946 0.45945 v 0.459453 0.459454 z m 83.68099,-2.297266 -1.51721,1.837812 2.25538,-4.633779 2.25537,-4.633777 1.55404,-5.345663 1.55403,-5.345661 -0.54025,-2.701199 -0.54024,-2.701199 0.82659,0.510857 0.82658,0.510859 0.5118,-1.154359 0.5118,-1.154358 -0.4168,4.594532 -0.41679,4.59453 2.48782,-5.28371 2.48782,-5.28371 h 0.72731 0.7273 l -2.32821,4.59453 -2.32822,4.59453 h 0.85773 0.85775 l 1.88533,-2.526991 1.88535,-2.526992 0.0291,0.70971 0.0291,0.709711 -3.77874,4.09945 -3.77873,4.099449 -2.5539,5.298808 -2.55391,5.298808 -1.51721,1.837813 z m -95.62677,0.459453 h -0.45946 v -0.459453 -0.459453 h 0.45946 0.45945 v 0.459453 0.459453 z m 3.82877,-1.225209 -0.6126,0.612605 v -1.225209 -1.225207 l 0.6126,0.612603 0.6126,0.612604 z m 100.92652,-3.369322 h -0.45946 v -0.459453 -0.459453 h 0.45946 0.45945 v 0.459453 0.459453 z m 6.15285,-4.477837 -3.35695,3.099479 1.64156,-1.968803 1.64156,-1.968803 0.63612,-2.297629 0.63611,-2.297629 1.07927,1.166953 1.07928,1.166953 z M 256.63093,30.976609 H 256.284 l -1.26115,-1.608085 -1.26115,-1.608087 1.60809,1.261149 1.60808,1.261147 v 0.346939 0.346937 z m 101.88607,0 h -0.45946 v -0.459452 -0.459453 h 0.45946 0.45945 v 0.459453 0.459452 z m 1.07206,-2.144113 -0.61261,0.612603 v -1.225207 -1.225209 l 0.61261,0.612605 0.6126,0.612604 z m -10.36958,-2.450417 h -0.45945 l 0.56791,-0.918906 0.56791,-0.918906 h 0.45946 0.45945 l -0.56792,0.918906 -0.56791,0.918906 z m 11.28849,-0.306303 -0.61261,0.612605 v -1.225208 -1.225209 l 0.61261,0.612604 0.61259,0.612605 z m 9.84635,-2.450417 h -0.45946 l 0.56791,-0.918905 0.56792,-0.918906 h 0.45946 0.45944 l -0.56791,0.918906 -0.56791,0.918905 z m -36.64779,-5.513436 h -0.45945 v -0.459452 -0.459454 h 0.45945 0.45946 v 0.459454 0.459452 z m 29.29654,-2.756718 h -0.45946 l 0.56791,-0.918906 0.56792,-0.918906 h 0.45945 0.45946 l -0.56791,0.918906 -0.56791,0.918906 z M 260.19404,14.436299 h -0.45945 v -0.459454 -0.459452 h 0.45945 0.45946 v 0.459452 0.459454 z m 8.42331,-0.306301 -0.6126,0.612602 v -1.225207 -1.225208 l 0.6126,0.612604 0.6126,0.612604 z m 78.87278,0.306301 h -0.45946 v -0.459454 -0.459452 h 0.45946 0.45945 v 0.459452 0.459454 z m -1.74209,-1.167777 -0.55518,0.555172 0.0725,-1.761235 0.0725,-1.761238 0.48264,1.206064 0.48263,1.206065 -0.55517,0.555172 z m -87.3918,-1.588941 h -0.45946 v -0.459454 -0.459453 h 0.45946 0.45945 v 0.459453 0.459454 z m 16.54031,0 h -0.45946 v -0.459454 -0.459453 h 0.45946 0.45945 v 0.459453 0.459454 z m 56.85444,-0.07657 -0.34171,0.382877 V 7.238208 2.490525 h 0.9752 0.9752 l -0.63348,4.364804 -0.6335,4.364804 z m 6.65721,0.07657 h -0.35234 l -0.44333,-2.319197 -0.44336,-2.319197 0.79567,-0.491753 0.79567,-0.491752 v 2.810949 2.81095 z m 18.27098,-0.918907 h -0.45945 V 10.301221 9.841767 h 0.45945 0.45945 v 0.459454 0.459453 z m 6.43234,0 h -0.45944 V 10.301221 9.841767 h 0.45944 0.45946 v 0.459454 0.459453 z m -93.90391,-0.932977 -0.74341,-0.01407 -1.37835,-0.890764 -1.37837,-0.890762 1.55386,-0.01407 1.55385,-0.01407 0.56792,0.918906 0.56791,0.918906 -0.74341,-0.01407 z m 15.03115,-0.292231 -0.6126,0.612603 V 8.922861 7.697653 l 0.6126,0.612605 0.6126,0.612604 z m 10.97801,0.306301 h -0.35515 l -0.45693,-2.986445 -0.45692,-2.986444 0.78414,-1.37836 0.78413,-1.37836 0.028,4.364806 0.028,4.364803 z M 273.97764,8.922861 h -0.45946 V 8.463409 8.003955 h 0.45946 0.45945 v 0.459454 0.459452 z m 3.67562,0 h -0.45945 V 8.463409 8.003955 h 0.45945 0.45946 v 0.459454 0.459452 z m 68.91797,0 h -0.45946 V 8.463409 8.003955 h 0.45946 0.45945 v 0.459454 0.459452 z m 2.75671,0 h -0.45945 V 8.463409 8.003955 h 0.45945 0.45946 V 8.463409 8.922861 Z M 270.30202,7.085049 h -0.45946 V 6.625596 6.166143 h 0.45946 0.45945 v 0.459453 0.459453 z m 6.43233,0 H 276.2749 V 6.625596 6.166143 h 0.45945 0.45946 v 0.459453 0.459453 z m 6.6301,-0.350902 -0.43016,0.430164 -0.57297,-1.493145 -0.57298,-1.493146 0.028,-0.614024 0.028,-0.614025 0.97519,1.677007 0.9752,1.677006 -0.43016,0.430163 z M 273.05873,6.166143 h -0.45945 V 5.70669 5.247237 h 0.45945 0.45945 V 5.70669 6.166143 Z m 2.75672,-0.918906 H 275.356 V 4.787784 4.328331 h 0.45945 0.45945 v 0.459453 0.459453 z m 12.86468,0 h -0.45945 V 4.787784 4.328331 h 0.45945 0.45946 V 4.787784 5.247237 Z M 291.59001,4.940935 290.9774,5.55354 V 4.328331 3.103123 l 0.61261,0.612603 0.61259,0.612605 z M 327.44817,4.098604 327.02793,5.70669 V 2.490518 -0.72565304 l 0.42024,1.608086 0.42024,1.60808504 z M 276.73435,3.409425 H 276.2749 V 2.949971 2.490518 h 0.45945 0.45946 v 0.459453 0.459454 z m 11.30887,-0.435139 -0.5144,0.5144 -0.62742,-1.647717 -0.62741,-1.64771604 1.14182,1.13331804 1.14181,1.133317 z m -6.71433,-0.483768 h -0.45946 V 2.031065 1.571612 h 0.45946 0.45945 v 0.459453 0.459453 z m 11.94578,0 h -0.45946 V 2.031065 1.571612 h 0.45946 0.45945 v 0.459453 0.459453 z m 23.12581,-1.225207 -0.6126,0.612603 v -1.22520704 -1.225209 l 0.6126,0.612604 0.6126,0.612605 z m -24.45807,-1.10055204 -0.8728,0.53942 -0.92199,-1.72277596 -0.92201,-1.722776 0.7867,-0.829952 0.78671,-0.829953 0.50056,-1.837812 0.50057,-1.8378121 -0.46563,4.1350771 -0.46563,4.13507796 0.95908,-1.37835896 0.9591,-1.37836 0.0141,1.094402 0.0141,1.09440096 -0.87281,0.539422 z m 2.25116,0.487948 h -0.45945 v -0.459454 -0.459453 h 0.45945 0.45946 v 0.459453 0.459454 z m 4.59454,0 h -0.45946 v -1.265845 -1.26584396 l -1.37836,-1.143936 -1.37835,-1.143937 V -5.113848 -6.06084 l 1.8378,2.119015 1.83782,2.119015 v 1.23775896 1.237758 z m 9.4742,-1.68698696 -0.32282,2.146438 -0.63389,-2.257135 -0.63389,-2.257138 0.423,-0.423005 0.42301,-0.423006 0.53369,0.533702 0.53372,0.533704 z m -21.41998,0.76807996 h -0.45946 v -0.459453 -0.45945296 h 0.45946 0.45945 v 0.45945296 0.459453 z m 46.86421,0 h -0.45945 v -0.459453 -0.45945296 h 0.45945 0.45946 v 0.45945296 0.459453 z M 284.0856,-1.185106 h -0.45944 V -1.64456 -2.104012 h 0.45944 0.45946 v 0.459452 0.459454 z m 27.66292,-0.24887 -0.55518,0.55517096 0.0725,-1.76123596 0.0725,-1.761237 0.48263,1.206065 0.48263,1.206063 -0.55517,0.555174 z m -22.91523,-3.733057 -0.61261,0.612604 v -1.225209 -1.2252071 l 0.61261,0.6126041 0.6126,0.612603 z m 17.30607,0.306302 h -0.45946 v -0.459453 -0.459454 h 0.45946 0.45945 v 0.459454 0.459453 z m -5.51345,-0.918907 h -0.45945 V -6.23909 -6.6985431 h 0.45945 0.45946 v 0.4594531 0.459452 z m 2.90989,-0.306301 -0.61261,0.612604 v -1.2252081 -1.225208 l 0.61261,0.612604 0.61259,0.612604 z m -8.42332,-0.6126041 h -0.45945 v -0.459453 -0.459453 h 0.45945 0.45946 v 0.459453 0.459453 z m 10.10797,-0.918906 H 304.761 v -0.459453 -0.459454 h 0.45945 0.45945 v 0.459454 0.459453 z m -5.51344,-0.918907 h -0.45945 v -0.459452 -0.459454 h 0.45945 0.45945 v 0.459454 0.459452 z"
         id="path16017"
         inkscape:connector-curvature="0" />
      <g
         aria-label="Apache Directory"
         style="font-style:normal;font-variant:normal;font-weight:normal;font-stretch:normal;font-size:21.34285927px;line-height:125%;font-family:Montserrat;-inkscape-font-specification:Montserrat;letter-spacing:0px;word-spacing:0px;fill:#000000;fill-opacity:1;stroke:none;stroke-width:0.77610391px;stroke-linecap:butt;stroke-linejoin:miter;stroke-opacity:1"
         id="text890">
        <path
           d="m 229.55719,193.07512 -1.38729,-3.22277 h -6.25346 l -1.38728,3.22277 h -3.54292 l 6.44555,-14.91866 h 3.22277 l 6.44554,14.91866 z m -4.50335,-10.47934 -1.87817,4.3326 h 3.735 z"
           style="font-style:normal;font-variant:normal;font-weight:bold;font-stretch:normal;font-family:Montserrat;-inkscape-font-specification:'Montserrat Bold';stroke-width:0.77610391px"
           id="path1756" />
        <path
           d="m 241.1707,181.40057 q 2.00623,0 3.56426,1.68609 1.57937,1.66474 1.57937,4.20454 0,2.5398 -1.57937,4.24723 -1.55803,1.70743 -3.67097,1.70743 -2.0916,0 -3.37217,-1.68608 v 5.65585 h -3.20143 v -15.62297 h 3.20143 v 1.28057 q 1.47265,-1.47266 3.47888,-1.47266 z m -3.52157,5.95466 q 0,1.38729 0.76834,2.28369 0.78969,0.87506 1.89952,0.87506 1.10983,0 1.9422,-0.87506 0.83237,-0.8964 0.83237,-2.28369 0,-1.38728 -0.81103,-2.32637 -0.81103,-0.93908 -1.9422,-0.93908 -1.13117,0 -1.92086,0.93908 -0.76834,0.91774 -0.76834,2.32637 z"
           style="font-style:normal;font-variant:normal;font-weight:bold;font-stretch:normal;font-family:Montserrat;-inkscape-font-specification:'Montserrat Bold';stroke-width:0.77610391px"
           id="path1758" />
        <path
           d="m 258.45875,193.07512 h -3.00934 v -1.38729 q -1.23789,1.55803 -3.07337,1.55803 -1.81414,0 -3.05203,-1.0458 -1.23789,-1.06714 -1.23789,-2.81726 0,-1.77145 1.28058,-2.64651 1.28057,-0.87506 3.50022,-0.87506 h 2.3904 v -0.064 q 0,-1.83548 -1.9422,-1.83548 -0.83237,0 -1.77145,0.34148 -0.91775,0.32015 -1.55803,0.81103 l -1.42997,-2.07025 q 2.26234,-1.64341 5.16497,-1.64341 2.0916,0 3.41486,1.04581 1.32325,1.0458 1.32325,3.30814 z m -3.22277,-4.37529 v -0.55491 h -2.00623 q -1.92085,0 -1.92085,1.1952 0,0.61894 0.4482,0.96043 0.46954,0.32014 1.32325,0.32014 0.85372,0 1.494,-0.51223 0.66163,-0.53357 0.66163,-1.40863 z"
           style="font-style:normal;font-variant:normal;font-weight:bold;font-stretch:normal;font-family:Montserrat;-inkscape-font-specification:'Montserrat Bold';stroke-width:0.77610391px"
           id="path1760" />
        <path
           d="m 266.88385,190.40726 q 1.60071,0 2.88128,-1.60071 l 1.89952,2.13428 q -2.21966,2.30503 -4.80215,2.30503 -2.58248,0 -4.37528,-1.62206 -1.77146,-1.6434 -1.77146,-4.26857 0,-2.64651 1.7928,-4.28991 1.81414,-1.66475 4.28991,-1.66475 1.23789,0 2.49712,0.51223 1.28057,0.51223 2.241,1.51535 l -1.66474,2.17697 q -0.55492,-0.66163 -1.36595,-1.02446 -0.78968,-0.36283 -1.57937,-0.36283 -1.25923,0 -2.17697,0.83237 -0.8964,0.81103 -0.8964,2.28369 0,1.45131 0.8964,2.26234 0.91774,0.81103 2.13429,0.81103 z"
           style="font-style:normal;font-variant:normal;font-weight:bold;font-stretch:normal;font-family:Montserrat;-inkscape-font-specification:'Montserrat Bold';stroke-width:0.77610391px"
           id="path1762" />
        <path
           d="m 277.00103,186.88569 v 6.18943 h -3.20143 v -15.8364 h 3.20143 v 5.63451 q 1.45131,-1.47266 3.24411,-1.47266 1.81415,0 3.05203,1.28058 1.23789,1.28057 1.23789,3.41485 v 6.97912 h -3.20143 v -6.2748 q 0,-2.64652 -1.9422,-2.64652 -0.96043,0 -1.68609,0.70432 -0.70431,0.68297 -0.70431,2.02757 z"
           style="font-style:normal;font-variant:normal;font-weight:bold;font-stretch:normal;font-family:Montserrat;-inkscape-font-specification:'Montserrat Bold';stroke-width:0.77610391px"
           id="path1764" />
        <path
           d="m 297.37645,191.41038 q -1.9422,1.83548 -4.56737,1.83548 -2.60383,0 -4.31126,-1.60071 -1.70743,-1.62206 -1.70743,-4.3326 0,-2.71055 1.72878,-4.31126 1.75011,-1.60072 4.11917,-1.60072 2.36905,0 4.01245,1.42998 1.66475,1.42997 1.66475,3.92708 v 1.70743 h -8.3664 q 0.1494,0.93909 0.98177,1.53669 0.83237,0.5976 1.87817,0.5976 1.68609,0 2.77457,-1.13117 z m -2.30503,-5.229 q -0.10671,-1.02446 -0.76834,-1.57938 -0.66163,-0.55491 -1.62206,-0.55491 -0.93908,0 -1.72877,0.57626 -0.78968,0.57625 -0.91774,1.55803 z"
           style="font-style:normal;font-variant:normal;font-weight:bold;font-stretch:normal;font-family:Montserrat;-inkscape-font-specification:'Montserrat Bold';stroke-width:0.77610391px"
           id="path1766" />
        <path
           d="m 311.82257,178.15646 q 3.99112,0 6.1254,1.96354 2.13429,1.9422 2.13429,5.42109 0,3.47889 -2.0916,5.50646 -2.07026,2.02757 -6.33883,2.02757 h -5.10094 v -14.91866 z m 0.17075,11.97334 q 2.28368,0 3.50022,-1.15251 1.23789,-1.15251 1.23789,-3.35083 0,-2.19831 -1.23789,-3.37217 -1.21654,-1.1952 -3.75634,-1.1952 h -1.85683 v 9.07071 z"
           style="font-style:normal;font-variant:normal;font-weight:bold;font-stretch:normal;font-family:Montserrat;-inkscape-font-specification:'Montserrat Bold';stroke-width:0.77610391px"
           id="path1768" />
        <path
           d="m 325.73111,193.07512 h -3.20143 v -11.48246 h 3.20143 z m -2.94532,-12.93377 q -0.53357,-0.55492 -0.53357,-1.3446 0,-0.78969 0.53357,-1.32326 0.55492,-0.55492 1.3446,-0.55492 0.78969,0 1.32326,0.55492 0.55491,0.53357 0.55491,1.32326 0,0.78968 -0.55491,1.3446 -0.53357,0.53357 -1.32326,0.53357 -0.78968,0 -1.3446,-0.53357 z"
           style="font-style:normal;font-variant:normal;font-weight:bold;font-stretch:normal;font-family:Montserrat;-inkscape-font-specification:'Montserrat Bold';stroke-width:0.77610391px"
           id="path1770" />
        <path
           d="m 334.8225,184.40992 q -1.42997,0 -2.13429,1.02446 -0.70431,1.00311 -0.70431,2.66785 v 4.97289 h -3.20143 v -11.48246 h 3.20143 v 1.51534 q 0.61894,-0.70431 1.53669,-1.1952 0.93908,-0.49088 1.89951,-0.51223 l 0.0213,3.00935 z"
           style="font-style:normal;font-variant:normal;font-weight:bold;font-stretch:normal;font-family:Montserrat;-inkscape-font-specification:'Montserrat Bold';stroke-width:0.77610391px"
           id="path1772" />
        <path
           d="m 347.48215,191.41038 q -1.9422,1.83548 -4.56737,1.83548 -2.60383,0 -4.31126,-1.60071 -1.70743,-1.62206 -1.70743,-4.3326 0,-2.71055 1.72877,-4.31126 1.75012,-1.60072 4.11917,-1.60072 2.36906,0 4.01246,1.42998 1.66475,1.42997 1.66475,3.92708 v 1.70743 h -8.36641 q 0.1494,0.93909 0.98178,1.53669 0.83237,0.5976 1.87817,0.5976 1.68608,0 2.77457,-1.13117 z m -2.30503,-5.229 q -0.10671,-1.02446 -0.76834,-1.57938 -0.66163,-0.55491 -1.62206,-0.55491 -0.93909,0 -1.72877,0.57626 -0.78969,0.57625 -0.91774,1.55803 z"
           style="font-style:normal;font-variant:normal;font-weight:bold;font-stretch:normal;font-family:Montserrat;-inkscape-font-specification:'Montserrat Bold';stroke-width:0.77610391px"
           id="path1774" />
        <path
           d="m 356.21539,190.40726 q 1.60071,0 2.88128,-1.60071 l 1.89952,2.13428 q -2.21966,2.30503 -4.80214,2.30503 -2.58249,0 -4.37529,-1.62206 -1.77146,-1.6434 -1.77146,-4.26857 0,-2.64651 1.7928,-4.28991 1.81415,-1.66475 4.28992,-1.66475 1.23788,0 2.49711,0.51223 1.28057,0.51223 2.241,1.51535 l -1.66474,2.17697 q -0.55492,-0.66163 -1.36594,-1.02446 -0.78969,-0.36283 -1.57938,-0.36283 -1.25922,0 -2.17697,0.83237 -0.8964,0.81103 -0.8964,2.28369 0,1.45131 0.8964,2.26234 0.91775,0.81103 2.13429,0.81103 z"
           style="font-style:normal;font-variant:normal;font-weight:bold;font-stretch:normal;font-family:Montserrat;-inkscape-font-specification:'Montserrat Bold';stroke-width:0.77610391px"
           id="path1776" />
        <path
           d="m 366.95151,183.89769 v 5.14363 q 0,0.66163 0.34149,1.0458 0.34149,0.36283 0.81103,0.36283 0.8964,0 1.51534,-0.81103 l 1.1952,2.241 q -1.494,1.36594 -3.15874,1.36594 -1.6434,0 -2.79592,-1.08848 -1.13117,-1.08849 -1.13117,-2.96666 v -5.29303 h -1.3446 v -2.30503 h 1.3446 v -3.4362 h 3.22277 v 3.4362 h 2.77458 v 2.30503 z"
           style="font-style:normal;font-variant:normal;font-weight:bold;font-stretch:normal;font-family:Montserrat;-inkscape-font-specification:'Montserrat Bold';stroke-width:0.77610391px"
           id="path1778" />
        <path
           d="m 374.9464,187.33389 q 0,1.40863 0.78969,2.30503 0.81103,0.87506 2.04892,0.87506 1.25922,0 2.04891,-0.87506 0.81103,-0.8964 0.81103,-2.30503 0,-1.40863 -0.81103,-2.30503 -0.78969,-0.8964 -2.04891,-0.8964 -1.23789,0 -2.04892,0.8964 -0.78969,0.8964 -0.78969,2.30503 z m 8.92132,0 q 0,2.49711 -1.72877,4.20454 -1.72877,1.70743 -4.35394,1.70743 -2.60383,0 -4.33261,-1.70743 -1.72877,-1.70743 -1.72877,-4.20454 0,-2.49711 1.72877,-4.20454 1.72878,-1.72878 4.33261,-1.72878 2.62517,0 4.35394,1.72878 1.72877,1.70743 1.72877,4.20454 z"
           style="font-style:normal;font-variant:normal;font-weight:bold;font-stretch:normal;font-family:Montserrat;-inkscape-font-specification:'Montserrat Bold';stroke-width:0.77610391px"
           id="path1780" />
        <path
           d="m 392.2648,184.40992 q -1.42997,0 -2.13429,1.02446 -0.70431,1.00311 -0.70431,2.66785 v 4.97289 h -3.20143 v -11.48246 h 3.20143 v 1.51534 q 0.61894,-0.70431 1.53668,-1.1952 0.93909,-0.49088 1.89952,-0.51223 l 0.0213,3.00935 z"
           style="font-style:normal;font-variant:normal;font-weight:bold;font-stretch:normal;font-family:Montserrat;-inkscape-font-specification:'Montserrat Bold';stroke-width:0.77610391px"
           id="path1782" />
        <path
           d="m 396.96358,197.59981 q -1.68609,0 -3.18009,-1.36595 l 1.45132,-2.36906 q 0.81102,0.78969 1.66474,0.78969 0.4482,0 0.76834,-0.4482 0.32014,-0.42686 0.32014,-0.91774 0,-0.49089 -4.43931,-11.69589 h 3.41486 l 2.79591,7.14986 2.79592,-7.14986 h 3.41485 l -5.33571,13.53137 q -0.46954,1.17386 -1.47266,1.81415 -0.98177,0.66163 -2.19831,0.66163 z"
           style="font-style:normal;font-variant:normal;font-weight:bold;font-stretch:normal;font-family:Montserrat;-inkscape-font-specification:'Montserrat Bold';stroke-width:0.77610391px"
           id="path1784" />
      </g>
    </g>
  </g>
</svg>
